<?xml version="1.0" encoding="UTF-8" standalone="no"?>
<!-- Created with Inkscape (http://www.inkscape.org/) -->

<svg
   version="1.1"
   id="svg25"
   width="1000"
   height="1000"
   viewBox="0 0 526.31579 526.31579"
   sodipodi:docname="outfitme"
   inkscape:version="1.2.2 (732a01da63, 2022-12-09, custom)"
   inkscape:export-filename="outfitme.png"
   inkscape:export-xdpi="96"
   inkscape:export-ydpi="96"
   xmlns:inkscape="http://www.inkscape.org/namespaces/inkscape"
   xmlns:sodipodi="http://sodipodi.sourceforge.net/DTD/sodipodi-0.dtd"
   xmlns="http://www.w3.org/2000/svg"
   xmlns:svg="http://www.w3.org/2000/svg">
  <defs
     id="defs29" />
  <sodipodi:namedview
     id="namedview27"
     pagecolor="#000000"
     bordercolor="#000000"
     borderopacity="0.25"
     inkscape:showpageshadow="2"
     inkscape:pageopacity="1"
     inkscape:pagecheckerboard="0"
     inkscape:deskcolor="#d1d1d1"
     showgrid="false"
     inkscape:zoom="0.5"
     inkscape:cx="-710"
     inkscape:cy="603"
     inkscape:window-width="2560"
     inkscape:window-height="1016"
     inkscape:window-x="0"
     inkscape:window-y="0"
     inkscape:window-maximized="1"
     inkscape:current-layer="svg25" />
  <g
     inkscape:groupmode="layer"
     id="layer1"
     inkscape:label="Image 1"
     transform="translate(2.671875,37.726563)">
    <path
       id="path716"
       style="display:none;fill:#808080"
       inkscape:label="path257"
       d="m 193.04492,24.476562 c 0,0 -87.01134,23.073355 -104.162108,37.601563 -17.150762,14.528208 -67.939453,97.328125 -67.939453,97.328125 0,0 37.735822,26.99705 88.837891,48.73633 L 126.75,176.37109 c 0,0 9.95456,61.13649 0.66016,240.41993 93.3392,-0.63264 176.25496,9.5028 258.73046,0 -6.9708,-134.46258 -3.11404,-202.46793 -0.75,-228.06641 0.78802,-8.53283 1.41016,-12.35352 1.41016,-12.35352 l 16.96875,31.77149 c 51.10207,-21.73928 88.83789,-48.73633 88.83789,-48.73633 0,0 -50.78869,-82.799917 -67.93945,-97.328125 C 407.51721,47.549917 320.50586,24.476562 320.50586,24.476562 c 0,0 -17.81308,19.561212 -63.73047,19.740418 C 210.858,44.037774 193.04492,24.476562 193.04492,24.476562 Z"
       sodipodi:nodetypes="cscccccscccsccc" />
    <path
       id="path722"
       style="display:inline;fill:#ffffff"
       inkscape:label="path257"
       d="m 193.04492,24.476562 c 0,0 -87.01133,23.07334 -104.162111,37.60156 -17.15078,14.52823 -67.93945,97.328128 -67.93945,97.328128 0,0 45.08538,16.37203 88.837891,48.73633 L 126.75,176.37109 c 0,0 9.95457,61.13632 0.66016,240.41993 87.05449,10.14422 176.41131,9.53271 258.73046,0 -9.29441,-179.28361 0.66016,-240.41993 0.66016,-240.41993 l 16.96875,31.77149 c 43.75251,-32.3643 88.83789,-48.73633 88.83789,-48.73633 0,0 -50.78867,-82.799898 -67.93945,-97.328128 -17.15078,-14.52822 -104.16211,-37.60156 -104.16211,-37.60156 0,0 -17.46443,34.34375 -63.73047,34.34375 -46.26604,0 -63.73047,-34.34375 -63.73047,-34.34375 z"
       sodipodi:nodetypes="csccccccccsczc" />
  </g>
</svg>
